<svg width="94.69" height="94.691" xmlns="http://www.w3.org/2000/svg">

 <g>
  <title>background</title>
  <rect fill="none" id="canvas_background" height="100" width="100" y="-1" x="-1"/>
 </g>
 <g>
  <title>Layer 1</title>
  <g id="svg_1">
   <path stroke="null" id="svg_2" d="m58.589058,15.776776l-10.887475,35.510783l-10.886766,-35.510783c-12.950775,4.605329 -22.694179,17.098273 -22.694179,31.420582c0,8.626553 3.401715,16.581678 8.905032,22.44474l15.784356,0l1.654754,-7.423854c-18.856965,-7.643994 -15.291405,-31.330324 -8.455348,-35.196716c0.811418,0.252427 12.701818,42.445926 12.701818,42.445926c0.162426,0 0.690131,0 1.334868,0c0.136182,0 0.648993,0 1.288056,0c0.231226,0 0.480893,0 0.734107,0c0.43408,0 0.884474,0 1.287346,0c0.645446,0 1.172443,0 1.335578,0c0,0 11.891109,-42.193499 12.701818,-42.445926c6.836767,3.866392 10.400908,27.552722 -8.456057,35.196716l1.655464,7.423854l15.784356,0c5.504026,-5.863062 8.905742,-13.818187 8.905742,-22.44474c0,-14.322308 -9.743403,-26.815253 -22.69347,-31.420582z"/>
   <line stroke-linecap="null" stroke-linejoin="null" id="svg_22" y2="14.822004" x2="24.809035" y1="34.362683" x1="3.842029" fill-opacity="null" stroke-width="null" stroke="null" fill="none"/>
  </g>
  <g id="svg_3"/>
  <g id="svg_4"/>
  <g id="svg_5"/>
  <g id="svg_6"/>
  <g id="svg_7"/>
  <g id="svg_8"/>
  <g id="svg_9"/>
  <g id="svg_10"/>
  <g id="svg_11"/>
  <g id="svg_12"/>
  <g id="svg_13"/>
  <g id="svg_14"/>
  <g id="svg_15"/>
  <g id="svg_16"/>
  <g id="svg_17"/>
 </g>
</svg>