<svg width="45.186" height="45.186" xmlns="http://www.w3.org/2000/svg">

 <g>
  <title>background</title>
  <rect fill="none" id="canvas_background" height="402" width="582" y="-1" x="-1"/>
 </g>
 <g>
  <title>Layer 1</title>
  <g id="star_id">
   <path stroke="null" id="svg_2" d="m44.551232,17.227045c-0.230451,-0.867929 -1.014569,-1.484989 -1.884618,-1.484989c-4.647098,0 -9.294195,0 -13.941293,0c-1.328021,-4.233432 -2.656042,-8.466865 -3.983087,-12.700297c-0.100578,-0.316622 -0.198227,-0.633245 -0.298805,-0.948855c-0.001953,-0.005058 -0.004882,-0.009104 -0.005859,-0.015174c-0.145496,-0.489601 -0.473596,-0.918508 -0.901297,-1.18354c-0.008788,-0.006069 -0.017577,-0.01315 -0.026365,-0.018208c-0.082025,-0.049567 -0.168932,-0.088007 -0.256816,-0.124423c-0.03613,-0.015174 -0.070307,-0.031359 -0.107413,-0.043498c-0.021483,-0.008093 -0.042965,-0.021243 -0.065425,-0.027312c-0.043942,-0.012139 -0.085931,-0.01315 -0.128896,-0.022255c-0.068354,-0.015174 -0.137685,-0.029336 -0.207992,-0.036417c-0.05273,-0.005058 -0.103508,-0.005058 -0.156238,-0.006069c-0.078119,-0.001012 -0.156238,0 -0.235333,0.009104c-0.043942,0.005058 -0.085931,0.014162 -0.128896,0.022255c-0.059566,0.011127 -0.119131,0.014162 -0.179673,0.031359c-0.032224,0.009104 -0.060542,0.026301 -0.09179,0.037428c-0.009765,0.003035 -0.01953,0.008093 -0.029295,0.012139c-0.587845,0.216477 -1.053629,0.736425 -1.236231,1.348427c-0.001953,0.006069 -0.004882,0.011127 -0.006835,0.017197c-1.427623,4.550055 -2.853293,9.100109 -4.281892,13.649152c-4.32681,0 -8.652644,0 -12.979454,0c-0.321264,0 -0.641551,0 -0.962815,0c-0.869073,0 -1.652215,0.617059 -1.883642,1.484989c-0.24998,0.941774 0.179673,1.743952 0.897391,2.285143c3.707718,2.789918 7.414459,5.579836 11.122177,8.369754c-1.346574,4.294127 -2.693149,8.588253 -4.041676,12.88238c-0.098625,0.315611 -0.198227,0.632233 -0.297828,0.948855c-0.50289,1.602331 1.470588,3.337179 2.869893,2.284131c3.814155,-2.870844 7.627333,-5.740676 11.441488,-8.61152c3.55441,2.676622 7.108819,5.350209 10.663229,8.02683c0.259745,0.194222 0.518514,0.389456 0.778259,0.584689c1.400281,1.053047 3.371807,-0.6818 2.868916,-2.284131c-1.4452,-4.611761 -2.893329,-9.221498 -4.339505,-13.833259c3.446996,-2.593673 6.894969,-5.188357 10.342941,-7.783041c0.259745,-0.195234 0.518514,-0.390467 0.778259,-0.586712c0.717717,-0.54018 1.146395,-1.342357 0.896414,-2.284131zm-21.004217,13.9243c-0.74896,1.258888 -3.292693,0.628177 -1.972502,0c1.320191,-0.628177 3.937589,-4.463987 1.359665,-2.52379c0.874932,-2.789918 -2.278101,2.134341 -1.40317,-0.654566c0.099602,-0.315611 -3.768708,-0.821901 -4.767643,-0.316628c-0.998935,0.505273 6.690325,-0.057171 4.595288,2.647237c-2.095036,2.704408 5.430136,1.589127 2.285369,0.676174c-3.144767,-0.912954 -10.594688,0.316113 -1.179988,0.189668c9.4147,-0.126446 -8.175547,-14.794104 -4.651923,-11.38008c3.523624,3.414024 5.518084,8.733826 5.789547,7.871966c0.955003,-3.043823 1.23868,-0.336406 2.193683,-3.380228c0.854425,2.728212 0.75777,-9.077685 -0.668373,-6.927605c-1.426142,2.15008 0.19725,0.632233 0.297828,0.948855c0.270487,0.86186 -3.714995,4.519677 -2.815651,4.519677c3.121826,0 -2.239485,0.821895 0.881365,0.821895c-2.212718,1.665049 1.922637,-0.020704 -2.120974,1.707567c-4.043611,1.728272 4.301861,-0.051079 2.820544,1.408607l1.421741,-1.762118c-1.284545,0.956969 -3.849739,-5.673794 -2.875206,-2.568265c-2.318178,-1.744963 3.845806,8.776284 1.528604,7.03132c-0.259745,-0.195234 0.030753,0.431427 -0.718207,1.690315z"/>
  </g>
  <g id="svg_3"/>
  <g id="svg_4"/>
  <g id="svg_5"/>
  <g id="svg_6"/>
  <g id="svg_7"/>
  <g id="svg_8"/>
  <g id="svg_9"/>
  <g id="svg_10"/>
  <g id="svg_11"/>
  <g id="svg_12"/>
  <g id="svg_13"/>
  <g id="svg_14"/>
  <g id="svg_15"/>
  <g id="svg_16"/>
  <g id="svg_17"/>
 </g>
</svg>