<?xml version="1.0" ?><svg style="enable-background:new 0 0 24 24;" version="1.1" viewBox="0 0 24 24" xml:space="preserve" xmlns="http://www.w3.org/2000/svg" xmlns:xlink="http://www.w3.org/1999/xlink"><style type="text/css">
	.st0{display:none;}
</style><g class="st0" id="grid"/><g id="icon"><path d="M12,0C5.383,0,0,5.383,0,12s5.383,12,12,12s12-5.383,12-12S18.617,0,12,0z M12,23C5.935,23,1,18.065,1,12S5.935,1,12,1   s11,4.935,11,11S18.065,23,12,23z"/><path d="M12,6.5c-3.467,0-6.701,2.017-8.44,5.264c-0.079,0.148-0.079,0.325,0,0.473C5.299,15.483,8.533,17.5,12,17.5   s6.701-2.017,8.44-5.264c0.079-0.148,0.079-0.325,0-0.473C18.701,8.517,15.467,6.5,12,6.5z M12,16.5   c-3.014,0-5.837-1.717-7.429-4.5C6.163,9.217,8.986,7.5,12,7.5s5.837,1.717,7.429,4.5C17.837,14.783,15.014,16.5,12,16.5z"/><path d="M12,9.5c-0.306,0-0.595,0.063-0.866,0.163c0.304,0.189,0.509,0.524,0.509,0.908c0,0.592-0.48,1.071-1.071,1.071   c-0.385,0-0.719-0.204-0.908-0.509C9.563,11.405,9.5,11.694,9.5,12c0,1.381,1.119,2.5,2.5,2.5s2.5-1.119,2.5-2.5   C14.5,10.619,13.381,9.5,12,9.5z"/></g></svg>