<?xml version="1.0" encoding="iso-8859-1"?>
<!-- Generator: Adobe Illustrator 19.0.0, SVG Export Plug-In . SVG Version: 6.00 Build 0)  -->
<svg version="1.1" id="Capa_1" xmlns="http://www.w3.org/2000/svg" xmlns:xlink="http://www.w3.org/1999/xlink" x="0px" y="0px"
	 viewBox="0 0 511.954 511.954" style="enable-background:new 0 0 511.954 511.954;" xml:space="preserve">
<g>
	<g>
		<g>
			<path d="M5.349,480.874C1.924,484.29,0,488.929,0,493.766s1.924,9.475,5.349,12.891c7.184,6.929,18.55,6.969,25.783,0.091
				l80.457-80.457l-25.874-25.874L5.349,480.874z"/>
			<path d="M356.526,256.051c0-55.544-45.027-100.571-100.571-100.571s-100.571,45.027-100.571,100.571
				s45.027,100.571,100.571,100.571C311.485,356.59,356.493,311.582,356.526,256.051z M192.96,244.897
				c-0.525,2.652-0.831,5.343-0.914,8.046c-0.275,4.856-4.28,8.66-9.143,8.686h-0.457c-5.043-0.266-8.924-4.556-8.686-9.6
				c0.165-3.436,0.562-6.857,1.189-10.24c0.395-2.391,1.727-4.526,3.7-5.933c1.973-1.407,4.425-1.97,6.815-1.564
				C190.441,235.183,193.781,239.907,192.96,244.897z M277.634,185.6c-0.856,4.96-5.562,8.294-10.525,7.458
				c-22.516-3.976-45.444,4.352-60.16,21.851c-1.732,2.1-4.318,3.308-7.04,3.291c-3.549-0.043-6.756-2.124-8.241-5.347
				c-1.485-3.223-0.982-7.014,1.292-9.738c18.918-22.444,48.344-33.135,77.257-28.069C275.174,175.921,278.49,180.64,277.634,185.6z
				"/>
			
				<rect x="102.982" y="376.966" transform="matrix(-0.7071 -0.7071 0.7071 -0.7071 -69.2658 752.7614)" width="36.571" height="27.52"/>
			<path d="M160.137,326.086l-29.166,29.074l25.874,25.874l29.074-29.166C176.051,344.651,167.355,335.955,160.137,326.086z"/>
			<path d="M511.04,234.474l-54.674-21.851c-2.719-1.073-4.759-3.385-5.486-6.217c-4.721-18.627-12.145-36.462-22.034-52.937
				c-1.498-2.494-1.702-5.558-0.549-8.229l23.314-54.309c-4.48-5.303-9.417-10.697-14.629-16
				c-5.211-5.12-10.606-10.057-15.909-14.537l-54.309,23.314c-2.671,1.154-5.734,0.95-8.229-0.549
				c-16.475-9.89-34.31-17.313-52.937-22.034c-2.832-0.727-5.144-2.766-6.217-5.486L277.532,0.966
				c-14.36-1.189-28.794-1.189-43.154,0L212.526,55.64c-1.073,2.719-3.385,4.759-6.217,5.486
				c-18.627,4.721-36.462,12.145-52.937,22.034c-2.494,1.498-5.558,1.702-8.229,0.549L90.834,60.394
				c-5.303,4.48-10.697,9.417-16,14.629c-5.12,5.211-10.057,10.606-14.537,15.909l23.314,54.309c1.154,2.671,0.95,5.734-0.549,8.229
				c-9.89,16.475-17.313,34.31-22.034,52.937c-0.727,2.832-2.766,5.144-5.486,6.217L0.869,234.474
				c-0.366,4.022-0.64,8.229-0.731,12.434h82.377c4.916-93.432,82.953-166.184,176.5-164.544s168.988,77.08,170.627,170.627
				c1.639,93.547-71.112,171.585-164.544,176.5v82.377c4.206-0.091,8.411-0.366,12.434-0.731l21.851-54.674
				c1.073-2.719,3.385-4.759,6.217-5.486c18.627-4.721,36.462-12.144,52.937-22.034c2.494-1.498,5.557-1.702,8.229-0.549
				l54.309,23.314c5.303-4.48,10.697-9.417,16-14.629c5.12-5.211,10.057-10.606,14.537-15.909l-23.314-54.309
				c-1.154-2.671-0.949-5.734,0.549-8.229c9.89-16.475,17.313-34.31,22.034-52.937c0.727-2.832,2.766-5.144,5.486-6.217
				l54.674-21.851c0.64-6.949,0.914-14.171,0.914-21.577S511.68,241.423,511.04,234.474z"/>
		</g>
	</g>
</g>
<g>
</g>
<g>
</g>
<g>
</g>
<g>
</g>
<g>
</g>
<g>
</g>
<g>
</g>
<g>
</g>
<g>
</g>
<g>
</g>
<g>
</g>
<g>
</g>
<g>
</g>
<g>
</g>
<g>
</g>
</svg>
