<svg width="10.134" height="15.626" xmlns="http://www.w3.org/2000/svg">

 <g>
  <title>background</title>
  <rect fill="none" id="canvas_background" height="402" width="582" y="-1" x="-1"/>
 </g>
 <g>
  <title>Layer 1</title>
  <path stroke="#ff7f00" id="svg_1" d="m7.194756,2.008308c-1.273876,-0.800467 -2.919828,-0.800467 -4.192956,0c-1.640722,1.029976 -2.165962,3.037128 -1.221576,4.668335l3.318054,5.732104l3.318054,-5.732104c0.944386,-1.631207 0.419893,-3.638358 -1.221576,-4.668335zm0.566333,4.331815l-2.662064,4.599341l-2.662811,-4.599341c-0.757601,-1.309471 -0.336961,-2.919557 0.980249,-3.746073c0.511045,-0.321032 1.096056,-0.482251 1.681815,-0.482251s1.17077,0.160516 1.681815,0.481547c1.31721,0.82722 1.738597,2.437306 0.980996,3.746777z"/>
  <path stroke="#ff7f00" id="svg_2" d="m5.076926,2.757955c-1.378,0 -2.5,1.122 -2.5,2.5s1.122,2.5 2.5,2.5s2.5,-1.122 2.5,-2.5s-1.121,-2.5 -2.5,-2.5zm0,4c-0.827,0 -1.5,-0.673 -1.5,-1.5s0.673,-1.5 1.5,-1.5s1.5,0.673 1.5,1.5s-0.673,1.5 -1.5,1.5z"/>
  <path d="m5.254498,8.607029c0,0 -0.0625,0.124998 -0.0625,0.249997c0,0.0625 0.044194,0.143305 0,0.187499c-0.044194,0.044194 -0.0625,0 -0.124999,0c-0.0625,0 -0.15932,-0.059697 -0.374997,-0.124999c-0.179453,-0.054334 -0.293282,-0.199124 -0.374997,-0.312497c-0.103363,-0.143408 -0.143304,-0.143305 -0.187499,-0.187499c-0.044194,-0.044194 -0.0625,0 0,0c0.0625,0 0.201262,0.174679 0.374997,0.374997c0.204749,0.236077 0.369847,0.461676 0.437496,0.624994c0.047835,0.115484 0.168339,0.346322 0.249998,0.312497c0.057742,-0.023917 -0.043078,-0.130014 0,-0.312497c0.064218,-0.272029 0.342888,-0.36398 0.374997,-0.499995c0.028719,-0.121655 0.044194,-0.143305 0,-0.187499c-0.044193,-0.044193 0,-0.124998 0.0625,-0.187498c0.0625,-0.062499 0.124999,-0.062499 0.124999,-0.124999l0.124999,-0.062499l0,-0.124999l0,-0.0625" id="svg_23" fill-opacity="null" stroke-width="null" stroke="#ff7f00" fill="none"/>
  <path d="m4.879501,7.669537c0,0.0625 0.046671,0.148208 0.312497,0.312497c0.237762,0.146945 0.312497,0.187498 0.437496,0.187498c0.124999,0 0.105839,0.033825 0.187498,0c0.057743,-0.023918 0.192256,-0.038582 0.249998,-0.062499c0.081659,-0.033824 0,-0.062499 -0.0625,-0.062499c0,0 -0.0625,0 -0.249998,0c-0.0625,0 -0.187499,0.062499 -0.187499,0.062499c-0.187499,0 -0.301482,0.030391 -0.437496,0.062499c-0.060828,0.014359 -0.129756,-0.023918 -0.187499,0c-0.081659,0.033825 -0.124999,0.0625 -0.249998,0.124999l-0.0625,0l0,0.0625l0,0" id="svg_25" fill-opacity="null" stroke-width="null" stroke="#ff7f00" fill="none"/>
 </g>
</svg>